# xmcd CD database file
#
# Track frame offsets:
#	150
#	20893
#	41558
#	63255
#	88578
#	105630
#	128360
#	142290
#	165932
#	179353
#	200688
#	220705
#
# Disc length: 3146 seconds
#
# Revision: 7
# Processed by: cddbd v1.5.2PL0 Copyright (c) Steve Scherf et al.
# Submitted via: CDex 1.70beta2
#
DISCID=a60c480c
DTITLE=Beck - SEA CHANGE
DYEAR=2002
DGENRE=Alternative
TTITLE0=The Golden Age
TTITLE1=Paper Tiger
TTITLE2=Guess I'm Doing Fine
TTITLE3=Lonesome Tears
TTITLE4=Lost Cause
TTITLE5=End Of The Day
TTITLE6=It's All In Your Mind
TTITLE7=Round The Bend
TTITLE8=Already Dead
TTITLE9=Sunday Sun
TTITLE10=Little One
TTITLE11=Side Of The Road
EXTD=493 393-2 (A) YEAR: 2002
EXTT0=
EXTT1=
EXTT2=
EXTT3=
EXTT4=
EXTT5=
EXTT6=
EXTT7=
EXTT8=
EXTT9=
EXTT10=
EXTT11=
PLAYORDER=
